# xmcd
#
# Track frame offsets: 
#        150
#        18254
#        29737
#        52897
#        73030
#        101337
#        118509
#        139038
#        164842
#        181301
#        203670
#        216005
#        233267
#
# Disc length: 3368 seconds
#
# Revision: 5
# Processed by: cddbd v1.5.2PL0 Copyright (c) Steve Scherf et al.
# Submitted via: ExactAudioCopyFreeDBPlugin 1.0
#
DISCID=ac0d260d
DTITLE=Eric Bibb - Painting Signs
DYEAR=2001
DGENRE=Blues
TTITLE0=Kokomo
TTITLE1=Delia's Gone
TTITLE2=Hope In A Hopeless World
TTITLE3=I Heard The Angels Singin'
TTITLE4=Five Miles Above
TTITLE5=Angel
TTITLE6=Got To Do Better
TTITLE7=Walkin' Home
TTITLE8=Paintin' Signs
TTITLE9=To Know You
TTITLE10=Honest I Do
TTITLE11=The Light Was Worth The Candle
TTITLE12=Don't Ever Let Nobody Drag Your Spirit Down
EXTD=
EXTT0=3:59 - Eric Bibb - Bug Music
EXTT1=2:33 - Trad. arr. and adapted by Eric Bibb - Bug Music
EXTT2=5:06 - Written by Staples, Roy Theil - Staples MUSIC, sONY wARNER
EXTT2=cHAPPEL
EXTT3=4:26 - Rev. Gary Davis - Carlin Music Group
EXTT4=6:15 - Dave Bronze - Bug Music
EXTT5=3:47 - Jimi Hendrix, Sony/ATV Music
EXTT6=4.32 - Eric Bibb and Chuck Anthony - Bug Music
EXTT7=5:42 - Eric Bibb - Bug Music
EXTT8=3:37 - Eric Bibb - Bug Music
EXTT9=4:56 - Eric Bibb - Bug Music
EXTT10=2:41 - Jimmy Reed and Ewart Abner Jr - Tristan Music Ltd
EXTT11=Eric Bibb - Bug Music
EXTT12=4:18 - Eric Bibb and Charlotte Höglund - DeJaRi Music (Recorded li
EXTT12=ve at Edmonton Folk Festival, Canada)
PLAYORDER=
